<svg xmlns="http://www.w3.org/2000/svg" xmlns:xlink="http://www.w3.org/1999/xlink" viewBox="0,0,256,256" width="48px" height="48px" fill-rule="nonzero"><g fill="none" fill-rule="nonzero" stroke="none" stroke-width="1" stroke-linecap="butt" stroke-linejoin="miter" stroke-miterlimit="10" stroke-dasharray="" stroke-dashoffset="0" font-family="none" font-weight="none" font-size="none" text-anchor="none" style="mix-blend-mode: normal"><g transform="scale(16,16)"><path d="M11,15h-6c-2.209,0 -4,-1.791 -4,-4v-6c0,-2.209 1.791,-4 4,-4h6c2.209,0 4,1.791 4,4v6c0,2.209 -1.791,4 -4,4z" fill="#8a2be2"></path><path d="M11,2h-6c-1.657,0 -3,1.343 -3,3v6c0,1.657 1.343,3 3,3h6c1.657,0 3,-1.343 3,-3v-6c0,-1.657 -1.343,-3 -3,-3zM13,11c0,1.105 -0.895,2 -2,2h-6c-1.105,0 -2,-0.895 -2,-2v-6c0,-1.105 0.895,-2 2,-2h6c1.105,0 2,0.895 2,2z" fill="#ffffff"></path><path d="M8,5c-1.657,0 -3,1.343 -3,3c0,1.657 1.343,3 3,3c1.657,0 3,-1.343 3,-3c0,-1.657 -1.343,-3 -3,-3zM8,10c-1.105,0 -2,-0.895 -2,-2c0,-1.105 0.895,-2 2,-2c1.105,0 2,0.895 2,2c0,1.105 -0.895,2 -2,2z" fill="#ffffff"></path><circle cx="11.5" cy="4.5" r="0.5" fill="#ffffff"></circle></g></g></svg>